<svg width="448" height="375" viewBox="0 0 448 375" fill="none" xmlns="http://www.w3.org/2000/svg">
    <path fill-rule="evenodd" clip-rule="evenodd" d="M156.531 349.969C162.089 349.969 166.594 355.077 166.594 360.031C166.594 365.589 162.089 370.094 156.531 370.094C150.974 370.094 146.469 365.589 146.469 360.031C146.469 355.077 150.974 349.969 156.531 349.969Z" fill="#D03536"/>
    <path fill-rule="evenodd" clip-rule="evenodd" d="M406.781 10.063C412.339 10.063 416.844 14.568 416.844 20.125C416.844 25.682 412.339 30.188 406.781 30.188C401.827 30.188 396.719 25.682 396.719 20.125C396.719 14.568 401.827 10.063 406.781 10.063Z" fill="#D55C2F"/>
    <path fill-rule="evenodd" clip-rule="evenodd" d="M175.469 206.875C181.026 206.875 185.531 211.38 185.531 216.938C185.531 223.287 181.026 227 175.469 227C169.912 227 165.406 223.287 165.406 216.938C165.406 211.38 169.912 206.875 175.469 206.875Z" fill="#D9B341"/>
    <path fill-rule="evenodd" clip-rule="evenodd" d="M323.36 354.281C328.926 354.281 333.438 358.786 333.438 364.344C333.438 369.901 328.926 374.406 323.36 374.406C317.794 374.406 313.281 369.901 313.281 364.344C313.281 358.786 317.794 354.281 323.36 354.281Z" fill="#D9B341"/>
    <path fill-rule="evenodd" clip-rule="evenodd" d="M323.36 84.844C328.926 84.844 333.438 89.356 333.438 94.922C333.438 101.217 328.926 105 323.36 105C317.794 105 313.281 101.217 313.281 94.922C313.281 89.356 317.794 84.844 323.36 84.844Z" fill="#D9B341"/>
    <path fill-rule="evenodd" clip-rule="evenodd" d="M195.594 20.125C201.151 20.125 205.656 24.637 205.656 30.203C205.656 35.769 201.151 40.281 195.594 40.281C190.037 40.281 185.531 35.769 185.531 30.203C185.531 24.637 190.037 20.125 195.594 20.125Z" fill="#E85C77"/>
    <path fill-rule="evenodd" clip-rule="evenodd" d="M416.844 300.094C422.401 300.094 426.906 304.606 426.906 310.172C426.906 315.738 422.401 320.25 416.844 320.25C411.287 320.25 406.781 315.738 406.781 310.172C406.781 304.606 411.287 300.094 416.844 300.094Z" fill="#4C8153"/>
    <path fill-rule="evenodd" clip-rule="evenodd" d="M61.844 315.337C67.401 315.337 71.906 319.005 71.906 324.563C71.906 330.12 67.401 334.625 61.844 334.625C56.287 334.625 51.781 330.12 51.781 324.563C51.781 319.005 56.287 315.337 61.844 315.337Z" fill="#4C8153"/>
    <path fill-rule="evenodd" clip-rule="evenodd" d="M10.063 0C15.62 0 20.125 5.387 20.125 10.063C20.125 15.62 15.62 20.125 10.063 20.125C4.505 20.125 0 15.62 0 10.063C0 5.387 4.505 0 10.063 0Z" fill="#4C8153"/>
    <path fill-rule="evenodd" clip-rule="evenodd" d="M30.617 88.337C35.769 88.337 40.281 92.005 40.281 97.563C40.281 103.12 35.769 107.625 30.617 107.625C24.637 107.625 20.125 103.12 20.125 97.563C20.125 92.005 24.637 88.337 30.617 88.337Z" fill="#D03536"/>
    <path fill-rule="evenodd" clip-rule="evenodd" d="M28.766 242.813C34.332 242.813 38.844 247.318 38.844 252.875C38.844 258.667 34.332 262.938 28.766 262.938C23.587 262.938 18.688 258.667 18.688 252.875C18.688 247.318 23.587 242.813 28.766 242.813Z" fill="#D55C2F"/>
    <path fill-rule="evenodd" clip-rule="evenodd" d="M436.969 186.719C442.526 186.719 447.031 191.231 447.031 196.797C447.031 202.363 442.526 206.875 436.969 206.875C431.412 206.875 426.906 202.363 426.906 196.797C426.906 191.231 431.412 186.719 436.969 186.719Z" fill="#325EAC"/>
    <path fill-rule="evenodd" clip-rule="evenodd" d="M333.422 120.563C338.988 120.563 343.5 125.068 343.5 130.625C343.5 136.183 338.988 140.688 333.422 140.688C327.856 140.688 323.344 136.183 323.344 130.625C323.344 125.068 327.856 120.563 333.422 120.563Z" fill="#D03536"/>
    <path fill-rule="evenodd" clip-rule="evenodd" d="M275.891 259.844C281.457 259.844 285.969 264.349 285.969 269.906C285.969 275.977 281.457 279.969 275.891 279.969C270.325 279.969 265.813 275.977 265.813 269.906C265.813 264.349 270.325 259.844 275.891 259.844Z" fill="#D03536"/>
    <path fill-rule="evenodd" clip-rule="evenodd" d="M110.5 140.688C116.058 140.688 120.563 145.2 120.563 150.766C120.563 156.332 116.058 160.844 110.5 160.844C104.943 160.844 100.438 156.332 100.438 150.766C100.438 145.2 104.943 140.688 110.5 140.688Z" fill="#325EAC"/>
</svg>
