<svg width="476" height="371" viewBox="0 0 476 371" fill="none" xmlns="http://www.w3.org/2000/svg">
    <path fill-rule="evenodd" clip-rule="evenodd" d="M10.063 216.937C15.62 216.937 20.125 222.324 20.125 227C20.125 232.557 15.62 237.062 10.063 237.062C4.50499 237.062 0 232.557 0 227C0 222.324 4.50499 216.937 10.063 216.937Z" fill="#325EAC"/>
    <path fill-rule="evenodd" clip-rule="evenodd" d="M465.75 166.593C471.542 166.593 475.813 171.099 475.813 176.656C475.813 182.213 471.542 186.718 465.75 186.718C460.193 186.718 455.688 182.213 455.688 176.656C455.688 171.099 460.193 166.593 465.75 166.593Z" fill="#325EAC"/>
    <path fill-rule="evenodd" clip-rule="evenodd" d="M36.922 0C42.488 0 47 4.505 47 10.062C47 15.619 42.488 20.125 36.922 20.125C32.022 20.125 26.844 15.619 26.844 10.062C26.844 4.505 32.022 0 36.922 0Z" fill="#325EAC"/>
    <path fill-rule="evenodd" clip-rule="evenodd" d="M176.906 67.343C182.464 67.343 186.969 71.856 186.969 78.124C186.969 82.988 182.464 87.5 176.906 87.5C171.952 87.5 166.844 82.988 166.844 78.124C166.844 71.856 171.952 67.343 176.906 67.343Z" fill="#D9B341"/>
    <path fill-rule="evenodd" clip-rule="evenodd" d="M415.406 28.781C420.964 28.781 425.469 33.286 425.469 38.843C425.469 44.914 420.964 48.906 415.406 48.906C409.849 48.906 405.902 44.914 405.902 38.843C405.902 33.286 409.849 28.781 415.406 28.781Z" fill="#D03536"/>
    <path fill-rule="evenodd" clip-rule="evenodd" d="M465.75 284.281C471.542 284.281 475.813 288.793 475.813 294.494C475.813 299.925 471.542 305.274 465.75 305.274C460.193 305.274 455.688 299.925 455.688 294.494C455.688 288.793 460.193 284.281 465.75 284.281Z" fill="#D03536"/>
    <path fill-rule="evenodd" clip-rule="evenodd" d="M77.188 127.75C82.745 127.75 87.25 132.262 87.25 137.828C87.25 143.844 82.745 147.906 77.188 147.906C71.63 147.906 67.125 143.844 67.125 137.828C67.125 132.262 71.63 127.75 77.188 127.75Z" fill="#E85C77"/>
    <path fill-rule="evenodd" clip-rule="evenodd" d="M320.485 97.562C326.051 97.562 330.563 102.067 330.563 107.625C330.563 113.182 326.051 117.687 320.485 117.687C314.919 117.687 310.406 113.182 310.406 107.625C310.406 102.067 314.919 97.562 320.485 97.562Z" fill="#4C8153"/>
    <path fill-rule="evenodd" clip-rule="evenodd" d="M125.61 259.843C131.176 259.843 135.688 264.844 135.688 269.906C135.688 275.463 131.176 279.968 125.61 279.968C120.044 279.968 115.531 275.463 115.531 269.906C115.531 264.844 120.044 259.843 125.61 259.843Z" fill="#4C8153"/>
    <path fill-rule="evenodd" clip-rule="evenodd" d="M197.031 349.968C202.589 349.968 207.094 354.474 207.094 360.031C207.094 365.588 202.589 370.093 197.031 370.093C191.474 370.093 186.969 365.588 186.969 360.031C186.969 354.474 191.474 349.968 197.031 349.968Z" fill="#E85C77"/>
    <path fill-rule="evenodd" clip-rule="evenodd" d="M331.063 260C336.62 260 341.125 265.001 341.125 270.063C341.125 275.62 336.62 280.125 331.063 280.125C325.505 280.125 321 275.62 321 270.063C321 265.001 325.505 260 331.063 260Z" fill="#E85C77"/>
    <path fill-rule="evenodd" clip-rule="evenodd" d="M300.902 10.062C305.901 10.062 310.406 14.574 310.406 20.14C310.406 25.706 305.901 30.218 300.902 30.218C294.787 30.218 290.281 25.706 290.281 20.14C290.281 14.574 294.787 10.062 300.902 10.062Z" fill="#E85C77"/>
    <path fill-rule="evenodd" clip-rule="evenodd" d="M261.281 196.812C266.839 196.812 271.902 201.317 271.902 206.875C271.902 213.224 266.839 216.937 261.281 216.937C255.724 216.937 251.219 213.224 251.219 206.875C251.219 201.317 255.724 196.812 261.281 196.812Z" fill="#D03536"/>
    <path fill-rule="evenodd" clip-rule="evenodd" d="M340.625 324.093C346.183 324.093 350.688 328.598 350.688 334.156C350.688 339.713 346.183 344.218 340.625 344.218C335.068 344.218 330.563 339.713 330.563 334.156C330.563 328.598 335.068 324.093 340.625 324.093Z" fill="#D55C2F"/>
</svg>
